<svg xmlns="http://www.w3.org/2000/svg" width="48" height="48" xmlns:v="https://vecta.io/nano"><path d="M32.063 4.125l.316.199.246.176v.188l.203.07c.293.129.5.277.734.492v.188l.156.063c.281.16.473.355.688.594v.188l.281.094v.188h.188v.188h.188c1.219 1.328 1.219 1.328 1.219 1.875h.188l1.406 2.531 1.668.016.566.004.813.008.258.004h.238l.211.004c.234-.043.316-.133.465-.316l.203-.352c.461-.742 1.105-1.219 1.953-1.43.805-.113 1.57.055 2.254.496a3.24 3.24 0 0 1 .371.348v.188l.281.094c.105.16.105.16.199.359l.094.191c.316.77.273 1.695-.023 2.461-.105.23-.211.441-.363.645h-.187v.188h-.187l-.094.281c-.738.488-1.465.652-2.344.563-.875-.18-1.496-.648-1.988-1.391-.105-.199-.168-.355-.168-.578l-3.656.094.223.828c.398 1.547.461 3.109.527 4.703h3l.188-.562c.461-.656 1.109-1.016 1.875-1.219.949-.121 1.68.082 2.438.656l.469.469v.188h.188c.406.902.566 1.793.227 2.75a3.36 3.36 0 0 1-1.598 1.648c-.805.258-1.777.258-2.551-.102-.648-.402-.961-.879-1.305-1.547-.098-.211-.098-.211-.211-.312l-.664-.031c-.066 0-.133-.004-.203-.004l-.641-.02-.43-.012-1.062-.027-.031.199c-.098.555-.215 1.094-.379 1.637l-.062.207c-.156.52-.344 1.02-.559 1.52l-.258.621-.211.504h.188v.188l.168.074c.223.121.363.25.535.434.43.469.43.469 1.016.656l.98.008.633.008h.402l.371.004c.316-.027.316-.027.477-.285l.105-.242a2.79 2.79 0 0 1 1.805-1.359c.973-.18 1.781-.031 2.602.516v.188l.172.07c.426.242.617.734.797 1.172.16.891.094 1.602-.312 2.414l-.109.25c-.469.598-1.109 1.027-1.859 1.156-.773.078-1.387.023-2.062-.375l-.176-.102c-.16-.098-.16-.098-.387-.273v-.187h-.187l-.234-.41-.133-.23c-.102-.203-.102-.203-.102-.391-.117 0-.234 0-.352-.004l-1.301-.016-.559-.008c-.27 0-.539-.004-.809-.008h-.254c-.602-.016-.926-.168-1.383-.57l-.117-.125-.133-.137-.133-.141-.492-.492h-.187c-.152.215-.152.215-.309.492l-.187.316-.199.348-.207.348-.406.699-.508.863-.27.461-.121.207c-.359.617-.648 1.262-.898 1.93l-.09.234c-.539 1.785-.395 3.832.008 5.633l.063.281c.355 1.605.844 3.16 1.375 4.715l.063.18.324.926.129.371.117.332c.094.352.133.613.086.977-.254.336-.395.457-.812.527h-.41l-.227.004h-.758-.543-1.477-1.543-2.594c-1-.004-2-.004-3 0h-2.57-1.539-1.445-.531c-.238 0-.48 0-.723-.004l-.211.004c-.539-.012-.758-.16-1.117-.531-.238-.5-.352-1.02-.48-1.555l-.309-1.102-.059-.184c-.133-.437-.312-.805-.559-1.191l-.187-.094v-.187l-.164-.039-.379-.105c-.891-.187-1.887-.012-2.777.09l-.352.039-1.215.16c-1.273.207-2.73.102-3.832-.613-.582-.477-.836-1.051-.937-1.781l-.02-.687-.008-.395-.012-.617-.012-.602-.004-.359c-.066-.574-.324-1.02-.617-1.512-.227-.414-.359-.691-.266-1.172.109-.234.23-.437.375-.656l-.176-.051-.23-.074-.227-.066a1.08 1.08 0 0 1-.492-.371c-.207-.617-.102-1.242.051-1.859A3 3 0 0 0 3 30.281l-.281-.187v-.187l-.32-.031c-.449-.055-.852-.191-1.273-.344l-.281-.094v-.187l-.172-.062c-.266-.164-.344-.316-.484-.594-.133-.836.035-1.449.469-2.156l.266-.48.203-.363h.188l.031-.16c.07-.246.18-.426.313-.645l.723-1.258.344-.617.102-.172.285-.488c.387-.707.578-1.254.516-2.059l-.02-.316c-.031-.309-.082-.609-.141-.914-.492-2.891.199-6.02 1.598-8.559l.191-.387c1.656-3.336 4.68-5.633 7.965-7.207l.23-.113c.676-.32 1.398-.52 2.113-.73.113-.035.23-.066.348-.102 5.293-1.5 11.523-.727 16.152 2.258zm-16.687 2.25v.188c-.055.023-.113.051-.172.078-.203.109-.336.211-.484.391v.188l-.281.094-.187.281c-.285.086-.285.086-.645.164-1.242.297-2.332.992-3.012 2.086v.188h-.187c-.531 1.121-.531 1.121-.656 2.344-.055.023-.105.047-.164.074-.23.125-.41.27-.609.441l-.199.172c-.176.141-.176.141-.152.344h-.187l-.363.703-.105.199c-.379.742-.5 1.398-.492 2.23 0 .078 0 .152-.004.227.004.852.18 1.535.602 2.273l.105.191.258.457h.188l.063.156c.301.531.836.926 1.344 1.25h.188v.188l.516.223.289.125c.691.262 1.32.34 2.055.367a6.14 6.14 0 0 1 .262.012l.629.023.082.242c.23.633.457 1.246.949 1.727h.188v.188c1.242.887 2.48 1.055 3.965 1.031.18-.004.363-.004.543-.004l.844-.012.82-.008.254-.008c.832 0 1.512.195 2.125.773.719.836.832 1.879.93 2.938.074.68.316 1.125.832 1.57.398.285.723.422 1.219.375.125-.637.125-.637-.078-1.23-.184-.195-.184-.195-.391-.176a18.16 18.16 0 0 1-.27-1.586c-.145-1.023-.492-1.906-1.137-2.727h-.187l-.078-.18c-.098-.227-.098-.227-.391-.289v-.187l-.625-.32c-.062-.031-.121-.062-.18-.094-.637-.324-1.164-.348-1.863-.344-.086.004-.172.004-.262.004l-1.102.004c-3.277.023-3.277.023-4.043-.641-.547-.594-.676-1.137-.656-1.926 0-.07 0-.137.004-.211a21.68 21.68 0 0 1 .008-.504c-.086 0-.172.004-.258.004l-.969.008-.414.004c-2.098.023-2.098.023-2.953-.477-.082-.051-.168-.098-.25-.145-.219-.145-.219-.145-.375-.305-.117-.145-.117-.145-.312-.121l-.07-.156c-.113-.23-.113-.23-.297-.437-.547-.711-.758-1.707-.664-2.594.117-.82.277-1.531.844-2.156.066-.051.137-.102.207-.152l.168-.129v-.187c.078-.016.078-.016.156-.035.242-.066.461-.141.688-.246.129-.258.137-.504.172-.789.156-1.113.445-1.937 1.328-2.68.668-.445 1.277-.68 2.07-.734.48-.031.48-.031.84-.32.152-.301.277-.574.277-.914h.188v-.187l.375-.187.18-.094a4.81 4.81 0 0 1 3.32-.328l.301.082.23.059c.016.422.016.844.016 1.266.008.117.012.238.016.359-.008.871-.008.871-.348 1.246-.461.34-.937.574-1.465.785-.219.27-.219.27-.18.609.059.332.059.332.285.523.469.152.813-.051 1.242-.246.23-.113.23-.113.34-.23l.004.352.027 1.301.008.559.016.809a5.59 5.59 0 0 0 .004.254c.012.445.051.809.223 1.227a12.64 12.64 0 0 0 .406.063c.074.016.148.027.227.039.215.012.215.012.375-.129.277-.371.227-.797.23-1.238 0-.082 0-.164.004-.246l.008-.809.004-.562.016-1.473.016-1.504.027-2.953.531-.137.301-.078c1.117-.25 2.246.082 3.199.684.293.238.563.492.75.82.211.352.211.352.551.555.211.027.414.039.629.043 1.234.086 2.094.473 2.945 1.395.516.602.777 1.441.738 2.234l-.023.238c-.016.313.004.398.215.637.383.332.383.332.852.453.023.063.051.129.078.195.082.203.168.406.258.609.309.742.238 1.336.039 2.102l-1.727.016-.586.004-.848.008c-.129.004-.129.004-.262.004-.527 0-.891-.07-1.359-.312-.453-.227-1.086-.145-1.566-.035a3.26 3.26 0 0 0-1.809 1.535c-.305.82-.266 1.578.055 2.387.219.395.52.637.883.895a8.53 8.53 0 0 1 .223.172c.754.34 1.535.375 2.316.102l.18-.086v-.187h.188v-.187h.188l.469-.844h-1.031v.188c-.617.266-1.289.297-1.922.07-.418-.293-.59-.605-.703-1.102.008-.52.125-1.008.281-1.5h.188v-.187c.492-.23.969-.328 1.508-.227.258.125.363.219.559.418.418.363.793.355 1.328.348a6.38 6.38 0 0 0 .273.004l.867.004.863.004h.535c.473 0 .922.027 1.391.109.211.016.211.016.445-.23.227-.34.363-.699.48-1.086l.109-.352c.234-1.016.109-2.164-.426-3.062-.207-.305-.449-.555-.715-.805-.305-.324-.344-.652-.406-1.078-.219-1.336-.895-2.453-1.984-3.27-.977-.668-1.941-1.055-3.141-.996-.023-.055-.047-.109-.074-.164-.523-.965-1.629-1.523-2.633-1.84-1.297-.375-2.602-.324-3.875.145-.289.086-.379.078-.648-.039-1.766-.672-3.457-.309-5.051.586zm9.563 3.563c-.18.18-.117.516-.129.758-.039.746-.184 1.336-.621 1.961L24 12.75v.188a4.33 4.33 0 0 0-.203.078c-.391.16-.391.16-.734.391-.086.32-.117.555-.047.879.141.18.141.18.43.254.875-.016 1.434-.656 2.02-1.242.402-.48.563-.965.68-1.57.023-.098.023-.098.043-.195.102-.512.02-.777-.219-1.219-.297-.316-.609-.344-1.031-.375zm-8.977 1.078l-.305.141v.188c-.059.023-.121.051-.18.078-.227.098-.227.098-.289.391H15c-.078.117-.148.238-.223.359-.043.063-.082.129-.125.199-.18.395-.18.395-.309 1.316l-2.156.094c-.074.684-.074.684.129.934.273.18.441.203.77.199h.254.266c.09-.004.176-.004.27-.004l.656-.004.086.313c.094.316.191.547.383.813h.188v.188c.793.77 1.664 1.047 2.754 1.039.117-.004.234-.004.355-.004.086 0 .176-.004.266-.004-.023-.184-.051-.363-.078-.547l-.039-.305c-.074-.285-.109-.395-.352-.555-.207-.039-.207-.039-.434-.039-.621-.051-1.137-.187-1.555-.668-.219-.422-.223-.75-.215-1.215 0-.078-.004-.156-.004-.234.004-.516.082-.816.426-1.219l.211-.133c.199-.148.199-.148.199-.465l-.012-.355-.012-.363-.012-.277c-.332 0-.445.012-.727.141zm3.07 8.297v.188h-.187c-.094.449-.094.449-.008.883l.102.148h.188v.188a4.93 4.93 0 0 0 3.469 1.313l.281-.094v-.187h.188c.098-.379.141-.574-.059-.922-.348-.297-.797-.293-1.234-.348-.859-.121-1.473-.559-2.082-1.168-.336-.016-.336-.016-.656 0zm0 0" fill="rgb(3.921569%,21.568628%,39.607844%)"/><path d="M20.25 7.219l.059 1.266.023.359c.023.867.023.867-.277 1.246-.379.309-.762.523-1.219.703-.203.074-.203.074-.367.176-.121.309-.125.461-.031.781.113.164.113.164.289.238.391.023.695-.129 1.023-.328.219-.129.219-.129.5-.129l.008.352.027 1.301.012.559.016.809.008.254c.008.418.035.816.117 1.227h1.031c.086-.437.109-.84.109-1.285V14.5l.004-.527.004-.832.016-2.367.008-1.449.004-.555.004-.77v-.234c.004-.211.004-.211.039-.547.676-.449 1.633-.473 2.41-.328 1.004.246 1.801.652 2.465 1.453l.16.297c.199.301.199.301.582.344l.43.023c.945.066 1.762.277 2.484.93v.188l.168.074c.508.281.777.813.941 1.348l.109.453.059.234c.039.246.016.441-.02.691-.012.246-.012.246.055.48.219.199.445.336.699.488.539.379.766 1.043.895 1.668.039.41-.008.715-.141 1.098l-.082.23-.059.172-1.727.016-.586.004-.848.008-.262.004c-.527 0-.891-.07-1.359-.312-.453-.227-1.09-.148-1.57-.031a3.41 3.41 0 0 0-1.605 1.203 3.11 3.11 0 0 0-.145 2.367c.195.492.445.766.883 1.055l.219.164c.66.309 1.32.348 2.031.211l.207-.039.168-.055.094-.187h.188v-.187h.188l.082-.219c.105-.25.105-.25.293-.531l-.937-.094v.188c-.516.336-1 .348-1.594.281-.445-.152-.68-.355-.937-.75-.254-.535-.215-1.055-.023-1.605l.211-.457h.188v-.187c.375-.293.75-.375 1.219-.375.387.07.578.199.848.473.418.363.793.355 1.328.348l.273.004.867.004.863.004h.535c.473 0 .926.027 1.395.102.199.023.199.023.395-.176.18-.34.316-.672.434-1.039l.109-.352c.219-.941.129-2.012-.32-2.871l-.242-.367c-.109-.16-.109-.16-.207-.363-.117-.223-.242-.254-.465-.359-.191-.289-.234-.453-.293-.789l-.047-.27c-.035-.254-.035-.254-.035-.629l2.02-.039.719-.016 3.727-.035h.277l1.285.016.457.004.203.008c.363 0 .363 0 .68-.164a5.88 5.88 0 0 0 .305-.5c.461-.742 1.105-1.219 1.953-1.43.805-.113 1.57.055 2.254.496a3.24 3.24 0 0 1 .371.348v.188l.281.094c.105.16.105.16.199.359l.094.191c.316.77.273 1.695-.023 2.461-.105.23-.211.441-.363.645h-.187v.188h-.187l-.094.281c-.738.488-1.465.652-2.344.563-.875-.18-1.496-.648-1.988-1.391-.105-.199-.168-.355-.168-.578l-3.656.094.223.828c.398 1.547.461 3.109.527 4.703h3l.188-.562c.461-.656 1.109-1.016 1.875-1.219.949-.121 1.68.082 2.438.656l.469.469v.188h.188c.406.902.566 1.793.227 2.75a3.36 3.36 0 0 1-1.598 1.648c-.805.258-1.777.258-2.551-.102-.648-.402-.961-.879-1.305-1.547-.098-.211-.098-.211-.211-.312l-.664-.031c-.066 0-.133-.004-.203-.004l-.641-.02-.43-.012-1.062-.027-.031.199c-.098.555-.215 1.094-.379 1.637l-.062.207c-.156.52-.344 1.02-.559 1.52l-.258.621-.211.504h.188v.188l.168.074c.223.121.363.25.535.434.43.469.43.469 1.016.656l.98.008.633.008h.402l.371.004c.316-.027.316-.027.477-.285l.105-.242a2.79 2.79 0 0 1 1.805-1.359c.973-.18 1.781-.031 2.602.516v.188l.172.07c.426.242.617.734.797 1.172.16.891.094 1.602-.312 2.414l-.109.25c-.469.598-1.109 1.027-1.859 1.156-.773.078-1.387.023-2.062-.375l-.176-.102c-.16-.098-.16-.098-.387-.273v-.187h-.187l-.234-.41-.133-.23c-.102-.203-.102-.203-.102-.391-.117 0-.234 0-.352-.004l-1.301-.016-.559-.008c-.27 0-.539-.004-.809-.008h-.254c-.801-.02-1.199-.379-1.75-.941l-.258-.266-.25-.258-.469-.469-.187-.187-.711-.031h-.219l-.73-.008c-.168 0-.336-.004-.504-.004l-1.324-.012-1.355-.016-2.656-.023.004.289.012 1.066.004.461c.027 1.605.027 1.605-.301 2.309-.277.285-.555.449-.937.563h-.469v-1.125l-.281-.094v-.187h-.187c-.184-.527-.301-1.035-.367-1.586-.125-.91-.387-1.633-.93-2.371-.109-.168-.109-.168-.109-.355h-.187c-.246-.223-.246-.223-.469-.469v-.187l-.18-.07-.918-.406c-.52-.207-1.023-.191-1.57-.187l-.262.004-1.102.004c-3.344.023-3.344.023-4.211-.773-.586-.656-.602-1.277-.59-2.137.02-.277.02-.277.113-.465l-.18.02c-1.879.188-3.523.223-5.141-.848-.879-.852-1.266-1.781-1.367-2.992.039-1.055.316-1.934 1.02-2.719.137-.117.137-.117.324-.117v-.187c.527-.281.527-.281.844-.281l.027-.293c.141-1.348.395-2.348 1.473-3.27.883-.602 1.676-.762 2.719-.75l.035-.164c.063-.219.145-.406.254-.609l.102-.199.078-.152h.188v-.187c1.156-.977 3.074-1.133 4.406-.469zm4.688 2.719c-.18.18-.117.516-.129.758-.039.746-.184 1.336-.621 1.961L24 12.75v.188l-.203.078c-.391.16-.391.16-.734.391-.086.32-.117.555-.047.879.141.18.141.18.43.254.875-.016 1.434-.656 2.02-1.242.402-.48.563-.965.68-1.57l.043-.195c.102-.512.02-.777-.219-1.219-.297-.316-.609-.344-1.031-.375zm-8.977 1.078l-.305.141v.188l-.18.078c-.227.098-.227.098-.289.391H15l-.223.359-.125.199c-.18.395-.18.395-.309 1.316l-2.156.094c-.074.684-.074.684.129.934.273.18.441.203.77.199h.254.266l.27-.004.656-.004.086.313c.094.316.191.547.383.813h.188v.188c.793.77 1.664 1.047 2.754 1.039l.355-.004.266-.004-.078-.547-.039-.305c-.074-.285-.109-.395-.352-.555-.207-.039-.207-.039-.434-.039-.621-.051-1.137-.187-1.555-.668-.219-.422-.223-.75-.215-1.215l-.004-.234c.004-.516.082-.816.426-1.219l.211-.133c.199-.148.199-.148.199-.465l-.012-.355-.012-.363-.012-.277c-.332 0-.445.012-.727.141zm3.07 8.297v.188h-.187c-.094.449-.094.449-.008.883l.102.148h.188v.188a4.93 4.93 0 0 0 3.469 1.313l.281-.094v-.187h.188c.098-.379.141-.574-.059-.922-.348-.297-.797-.293-1.234-.348-.859-.121-1.473-.559-2.082-1.168-.336-.016-.336-.016-.656 0zm0 0" fill="rgb(98.823529%,43.137255%,5.882353%)"/><path d="M46.313 9.469a2.94 2.94 0 0 1 .563.469v.188l.281.094c.105.16.105.16.199.359l.094.191c.316.77.273 1.695-.023 2.461-.105.23-.211.441-.363.645h-.187v.188h-.187l-.094.281c-.738.488-1.465.652-2.344.563-.875-.18-1.496-.648-1.988-1.391-.105-.199-.168-.355-.168-.578l-3.656.094.223.828c.398 1.547.461 3.109.527 4.703h3l.188-.562c.461-.656 1.109-1.016 1.875-1.219.949-.121 1.68.082 2.438.656l.469.469v.188h.188c.406.902.566 1.793.227 2.75a3.36 3.36 0 0 1-1.598 1.648c-.805.258-1.777.258-2.551-.102-.648-.402-.961-.879-1.305-1.547-.098-.211-.098-.211-.211-.312l-.664-.031c-.066 0-.133-.004-.203-.004l-.641-.02-.43-.012-1.062-.027-.031.199c-.098.555-.215 1.094-.379 1.637l-.062.207c-.156.52-.344 1.02-.559 1.52l-.258.621-.211.504-.367-.273-.211-.156-.266-.227-.758-.02c-.082 0-.16 0-.242-.004-.266 0-.527-.004-.793-.008-.184 0-.367-.004-.547-.004l-1.449-.016-1.473-.016-2.895-.027-.094-2.906h.188v-.187h.188l.082-.219c.105-.25.105-.25.293-.531l-.937-.094v.188c-.516.336-1 .348-1.594.281-.445-.152-.68-.355-.937-.75-.254-.535-.215-1.055-.023-1.605l.211-.457h.188v-.187c.375-.293.75-.375 1.219-.375.387.07.578.199.848.473.418.363.793.355 1.328.348l.273.004.867.004.863.004h.535c.473 0 .926.027 1.395.102.199.023.199.023.395-.176.18-.34.316-.672.434-1.039l.109-.352c.219-.941.129-2.012-.32-2.871l-.242-.367c-.109-.16-.109-.16-.207-.363-.117-.223-.242-.254-.465-.359-.191-.289-.234-.453-.293-.789l-.047-.27c-.035-.254-.035-.254-.035-.629l2.02-.039.719-.016 3.727-.035h.277l1.285.016.457.004.203.008c.363 0 .363 0 .68-.164a5.88 5.88 0 0 0 .305-.5c.906-1.461 2.516-1.797 4.016-1.055zm0 0" fill="rgb(98.431373%,43.137255%,6.27451%)"/><path d="M46.313 9.469a2.94 2.94 0 0 1 .563.469v.188l.281.094c.105.16.105.16.199.359l.094.191c.316.77.273 1.695-.023 2.461-.105.23-.211.441-.363.645h-.187v.188h-.187l-.094.281c-.738.488-1.465.652-2.344.563-.875-.18-1.496-.648-1.988-1.391-.105-.199-.168-.355-.168-.578h-.344l-3.203.016-1.648.004-1.586.008-.609.004h-.848l-.254.004c-.234 0-.234 0-.602-.035-.191-.289-.234-.453-.293-.789l-.047-.27c-.035-.254-.035-.254-.035-.629l2.02-.039.719-.016 3.727-.035h.277l1.285.016.457.004.203.008c.363 0 .363 0 .68-.164a5.88 5.88 0 0 0 .305-.5c.906-1.461 2.516-1.797 4.016-1.055zm0 0" fill="rgb(98.823529%,43.137255%,5.882353%)"/><path d="M30.082 20.395h.289l.945.008h.656l1.723.008 1.758.008 3.453.02-.086.488-.051.277c-.07.363-.168.715-.273 1.066l-.062.211c-.156.52-.344 1.02-.559 1.52l-.258.621-.211.504-.367-.277-.211-.152-.266-.227-.758-.02c-.082 0-.16 0-.242-.004-.266 0-.527-.004-.793-.008-.184 0-.367-.004-.547-.004l-1.449-.016-1.473-.016-2.895-.027-.094-2.906h.188v-.187h.188l.078-.211c.301-.707.59-.687 1.316-.676zm0 0" fill="rgb(3.921569%,21.568628%,40.000001%)"/><path d="M33.094 12.844h5.25c.422 1.516.68 2.793.762 4.328l.023.434.059 1.051-1.992.004-.676.004h-.977l-.301.004a14.17 14.17 0 0 1-1.773-.105l.113-.164a4.52 4.52 0 0 0 .684-3.316c-.117-.535-.277-.973-.594-1.422-.109-.16-.109-.16-.199-.363s-.09-.203-.379-.266v-.187zm0 0" fill="rgb(4.705882%,21.960784%,39.607844%)"/><path d="M33.094 12.844h5.25v.094h-4.875l.188.563-.281-.187v-.187l-.281-.094v-.187zm0 0" fill="rgb(40.392157%,32.156864%,32.941177%)"/><path d="M26.813 8.906l.504.035.285.02c.242.039.242.039.43.227h-1.219v-.281zm0 0" fill="rgb(98.823529%,46.27451%,16.470589%)"/><path d="M43.125 17.25l.188.094-.258.316-.145.18c-.168.168-.316.254-.535.348.156-.402.445-.645.75-.937zm0 0" fill="rgb(92.941177%,50.196081%,25.098041%)"/><path d="M12.656 9.75c-.145.359-.371.586-.656.844h-.187c.145-.355.426-.844.844-.844zm0 0" fill="rgb(95.686275%,41.960785%,11.372549%)"/><path d="M26.344 17.719c0 .281 0 .281-.223.531-.246.219-.246.219-.434.219l.094-.375h.188v-.187l.375-.187zm0 0" fill="rgb(91.37255%,46.666667%,21.176471%)"/><path d="M16.313 7.5c-.129.297-.187.375-.469.563l-.187-.187h.188v-.187c.281-.187.281-.187.469-.187zm0 0" fill="rgb(92.941177%,45.490196%,17.254902%)"/><path d="M8.063 6.281l.281.094-.469.469-.281-.094.469-.469zm0 0" fill="rgb(11.372549%,23.529412%,41.176471%)"/><path d="M27.563 16.5l.938.188v.281l-.937-.375V16.5zm0 0" fill="rgb(96.470588%,47.450981%,21.176471%)"/></svg>